<?xml version="1.0" standalone="no"?>
<!DOCTYPE svg PUBLIC "-//W3C//DTD SVG 20010904//EN"
 "http://www.w3.org/TR/2001/REC-SVG-20010904/DTD/svg10.dtd">
<svg version="1.0" xmlns="http://www.w3.org/2000/svg"
 width="600.000000pt" height="472.000000pt" viewBox="0 0 600.000000 472.000000"
 preserveAspectRatio="xMidYMid meet">
<g transform="translate(0.000000,472.000000) scale(0.050000,-0.050000)"
fill="#ffce00" stroke="none">
<path d="M4330 9299 c-902 -122 -1668 -487 -2297 -1097 -278 -270 -333 -342
-284 -370 21 -12 109 -69 195 -127 192 -128 153 -133 321 46 1562 1673 4371
1335 5527 -665 91 -159 118 -188 270 -295 231 -164 478 -418 478 -493 0 -58
90 -270 124 -290 144 -89 -201 920 -470 1376 -782 1323 -2378 2114 -3864 1915z"/>
<path d="M5034 8450 c-453 -178 -659 -454 -715 -955 -36 -331 -41 -342 -239
-534 -96 -94 -216 -225 -265 -291 -167 -222 -196 -241 -362 -237 -385 9 -606
159 -1044 707 -480 601 -756 776 -1254 796 -373 14 -460 -134 -197 -337 35
-27 103 -82 152 -123 49 -40 134 -99 190 -130 104 -58 134 -99 55 -75 -103 31
-172 67 -236 123 -38 33 -125 97 -194 143 -82 55 -139 112 -165 162 -126 248
-643 -166 -616 -493 l6 -76 66 103 c109 170 374 223 634 125 179 -67 134 -88
-180 -86 l-277 2 56 -45 c30 -24 93 -55 138 -68 146 -42 277 -144 341 -263 32
-60 126 -175 212 -258 178 -173 184 -190 166 -475 -13 -223 9 -322 85 -383 63
-49 62 -82 -1 -82 -64 0 -65 -49 -9 -325 57 -281 88 -325 167 -237 34 38 36
38 102 -5 87 -55 80 -75 -39 -106 -133 -34 -135 -39 -81 -197 62 -178 159
-267 184 -170 14 54 35 50 75 -12 24 -37 46 -48 73 -40 21 7 56 18 78 24 49
15 54 -24 9 -73 -88 -97 -18 -310 74 -226 32 29 37 29 37 3 0 -45 -40 -72
-118 -79 -53 -6 -70 -17 -75 -52 -6 -39 0 -44 39 -34 38 9 48 0 65 -53 26 -87
82 -121 118 -72 23 30 44 35 117 24 95 -15 124 4 124 77 0 68 168 109 211 51
33 -43 40 -44 120 -20 96 29 118 13 119 -82 0 -41 -8 -52 -30 -43 -41 15 -90
-28 -124 -109 -25 -61 -32 -65 -97 -53 -66 13 -71 10 -101 -62 -47 -112 -14
-174 87 -166 74 7 75 6 68 -58 -8 -82 39 -104 119 -57 72 42 106 25 91 -48
-14 -71 36 -144 94 -136 69 10 71 110 3 136 -50 19 -51 22 -21 64 17 25 31 61
31 80 0 19 18 44 40 56 66 35 51 115 -31 163 -63 37 -109 91 -109 128 0 8 11
5 25 -7 14 -11 52 -24 85 -27 49 -6 68 -24 104 -100 49 -103 93 -128 198 -108
86 16 90 -17 7 -60 -45 -23 -60 -43 -55 -75 9 -64 79 -57 112 11 46 96 85 59
124 -114 11 -52 43 -127 70 -167 27 -40 72 -141 100 -223 55 -164 81 -216 100
-198 13 14 -19 287 -41 347 -10 28 -8 34 7 20 64 -60 105 -234 91 -387 -12
-142 -11 -151 20 -125 71 59 59 -8 -34 -185 -75 -140 -95 -199 -90 -253 l7
-70 43 80 c24 44 75 111 114 148 l71 68 14 -58 c25 -98 -30 -587 -76 -678 -22
-44 -128 -171 -236 -282 -234 -241 -255 -289 -228 -523 17 -147 21 -155 68
-155 40 0 51 -11 56 -55 7 -57 68 -105 113 -88 20 8 20 34 -2 136 -46 222 -20
400 75 504 68 76 68 77 18 -214 -45 -266 -41 -287 54 -305 38 -7 75 -28 81
-46 16 -43 46 -61 102 -62 38 0 44 7 32 35 -9 19 -20 76 -24 125 -6 63 -24
104 -59 138 -47 44 -50 57 -35 150 9 56 17 146 18 201 2 78 50 168 51 98 10
-332 10 -337 66 -432 32 -54 70 -95 90 -95 19 0 69 -6 111 -13 l78 -13 -38 43
c-20 24 -42 68 -47 98 -7 37 -24 57 -54 61 -46 7 -46 6 -76 279 -13 117 18
145 52 48 23 -66 90 -103 186 -103 59 0 69 -8 79 -62 12 -58 17 -62 80 -50 51
10 80 3 120 -29 87 -69 128 2 58 102 -19 27 -32 64 -29 83 7 41 -60 87 -156
107 -38 8 -81 31 -95 51 -14 20 -70 60 -123 89 -161 87 -232 328 -102 346 73
9 173 115 223 236 30 73 56 107 80 107 22 0 41 20 49 50 21 83 88 14 88 -91 0
-55 22 -49 81 22 l50 62 132 -50 c560 -210 1362 -935 2163 -1955 177 -224 232
-264 382 -275 290 -21 356 183 73 226 -168 25 -183 91 -20 91 86 0 99 5 99 40
0 51 9 50 128 -10 161 -82 292 -60 292 49 0 78 -83 172 -208 234 -146 74 -160
87 -119 117 48 35 24 58 -122 120 -129 55 -153 90 -61 90 131 0 140 150 19
321 -104 148 -84 188 32 62 99 -106 164 -123 232 -60 l51 47 33 -49 c139 -210
236 -287 306 -244 55 35 95 28 161 -27 70 -59 95 -52 80 25 -10 54 -9 54 82
-29 126 -116 164 -122 312 -47 67 34 122 66 122 70 0 45 -54 111 -90 111 -25
0 -96 27 -158 61 -63 33 -151 64 -196 69 -45 4 -88 16 -94 26 -26 39 -105 64
-245 76 -191 16 -374 118 -402 223 -19 76 15 67 107 -27 153 -158 338 -209
338 -94 0 54 1 53 96 -40 98 -97 153 -114 224 -70 34 22 48 16 104 -37 114
-107 196 -136 196 -67 0 52 18 50 134 -11 99 -53 226 -61 241 -15 4 13 -28 42
-72 65 -129 66 -127 89 6 74 l116 -14 -14 71 -13 70 106 -62 c211 -125 317
-91 217 70 -68 110 -208 184 -1471 776 -1221 572 -1750 979 -2342 1800 -93
130 -152 223 -323 512 -12 20 -29 21 -81 3 -84 -30 -91 -21 -54 67 47 113 39
208 -23 265 -44 41 -50 60 -41 121 16 93 26 102 70 61 135 -122 321 165 203
314 -46 58 -125 66 -251 24 -37 -12 -47 1 -86 109 -69 188 -173 249 -303 179
-50 -26 -56 -220 -9 -259 31 -26 42 -100 14 -100 -8 0 -31 18 -49 40 -65 76
-240 57 -281 -31 -21 -44 -59 -81 -99 -98 -92 -39 -109 -16 -37 50 112 102 72
272 -117 496 -75 89 -97 103 -138 93 -60 -15 -163 25 -163 63 0 22 9 24 39 8
104 -56 190 0 219 145 10 48 25 66 63 71 67 9 139 80 139 137 0 50 41 78 88
60 23 -9 23 -25 -3 -102 -35 -107 -33 -111 151 -336 125 -152 198 -194 277
-158 123 56 -81 433 -303 557 -37 21 -37 24 -5 60 23 25 35 71 35 133 0 139
49 111 53 -30 1 -59 4 -119 5 -131 1 -13 46 -72 99 -130 53 -59 108 -127 121
-152 67 -128 255 47 214 200 -25 97 -234 325 -300 328 -34 2 -72 4 -84 5 -12
1 -17 27 -13 60 5 31 -2 77 -15 102 -21 39 -16 50 43 100 l67 56 -50 93 -50
92 59 47 c58 46 59 48 32 128 -34 104 -18 144 57 144 83 0 171 80 175 158 5
131 0 125 95 111 104 -15 120 1 121 131 1 70 8 88 31 82 230 -65 337 -5 358
198 13 123 10 124 135 -35 47 -60 48 -65 12 -65 -21 0 -56 -19 -77 -42 -59
-65 -189 -135 -280 -149 -70 -11 -85 -23 -106 -81 -19 -54 -40 -71 -103 -88
-64 -17 -92 -42 -149 -131 -38 -61 -94 -121 -122 -134 -47 -21 -51 -31 -41
-106 8 -57 2 -96 -20 -127 -26 -37 -26 -49 -4 -76 21 -26 22 -34 2 -41 -35
-12 -31 -116 6 -154 79 -78 198 13 143 111 -32 58 -33 66 -3 99 18 20 37 73
44 119 11 86 51 122 90 83 68 -68 205 4 228 118 12 59 15 60 98 48 101 -15
189 50 189 139 0 48 5 51 105 46 l105 -4 -1 80 c0 44 -7 99 -15 123 -15 42
-12 43 105 32 130 -11 188 31 115 85 -42 31 -23 50 50 50 118 0 78 -132 -60
-196 -192 -88 -128 -289 134 -423 131 -67 211 -52 253 47 l26 62 21 -54 c42
-110 250 -161 274 -67 16 66 66 78 171 42 202 -70 241 -13 82 120 -63 53 -177
159 -254 234 -168 167 -230 201 -365 204 -135 3 -151 23 -71 90 l66 54 -116
26 c-63 14 -209 62 -325 107 -281 108 -483 117 -577 27 -70 -68 -111 -55 -93
29 16 72 19 72 -196 -12z m-3627 -697 c86 -36 200 -138 255 -225 59 -97 32
-109 -57 -25 -178 167 -258 193 -361 117 -58 -43 -184 -21 -184 32 0 103 202
161 347 101z m-732 -108 c6 -17 -15 -25 -63 -25 -75 0 -98 30 -37 46 53 15 91
7 100 -21z m705 -75 c-27 -32 -80 -41 -80 -13 0 27 24 43 66 43 32 0 35 -5 14
-30z m200 -2174 c0 -44 -74 -122 -101 -105 -12 7 -7 29 11 55 16 23 30 70 31
103 0 58 2 59 30 22 16 -21 29 -55 29 -75z m3258 -8 c61 -30 91 -30 197 3 37
11 45 6 45 -27 0 -45 -31 -75 -47 -48 -6 9 -54 11 -107 5 -148 -17 -192 -195
-80 -319 32 -35 37 -50 18 -57 -15 -5 -67 -44 -116 -87 -89 -77 -153 -98 -178
-58 -7 11 9 20 36 20 84 0 154 72 154 159 0 100 -26 118 -181 125 l-129 6 84
28 c129 43 233 147 222 222 -10 69 -5 71 82 28z m-3127 -544 c43 5 67 0 63
-13 -27 -81 -195 -16 -192 75 l1 64 30 -67 c26 -61 35 -66 98 -59z m1760 -733
c57 -56 -71 -212 -144 -175 -20 11 -63 27 -95 37 -32 9 -63 29 -68 44 -6 20 3
23 39 12 80 -27 125 -14 175 50 54 70 55 71 93 32z m382 -240 c-6 -17 -2 -35
8 -42 36 -22 -3 -49 -72 -49 -83 0 -87 23 -14 78 65 48 94 53 78 13z m-1033
-92 c0 -19 -44 -31 -155 -44 -50 -6 -65 0 -65 24 0 26 23 33 110 35 61 2 110
-5 110 -15z m700 -70 c0 -27 -9 -49 -20 -49 -11 0 -20 28 -20 61 0 36 8 56 20
49 11 -7 20 -34 20 -61z m927 -9 c16 -80 67 -78 88 4 24 93 55 89 93 -12 45
-118 78 -145 143 -115 52 24 65 7 25 -33 -37 -37 -74 -29 -143 29 l-63 53 -6
-61 c-17 -167 213 -395 296 -295 28 34 60 40 60 11 0 -35 -63 -81 -112 -81
-33 0 -56 -16 -72 -50 -42 -92 -95 -38 -175 178 -32 84 -85 196 -119 249 -34
53 -62 121 -62 151 0 70 31 51 47 -28z m1051 -150 c0 -33 -5 -30 -30 16 -34
63 -141 72 -168 14 -57 -118 -61 -170 -18 -205 60 -49 149 -45 186 9 33 46 61
42 42 -6 -34 -89 -176 -117 -280 -55 l-72 42 -12 -42 c-14 -57 -34 -54 -63 8
-32 71 -29 89 16 89 109 0 164 64 155 180 -4 44 5 51 81 61 46 6 91 18 100 27
18 18 63 -81 63 -138z m-1748 26 c11 -25 48 -51 85 -61 38 -9 65 -29 65 -47 0
-23 -12 -27 -45 -17 -107 33 -155 70 -155 120 0 61 24 63 50 5z m1850 -316
c18 -34 15 -40 -18 -40 -45 0 -71 30 -52 60 19 31 47 24 70 -20z m-647 -205
c9 -14 13 -50 10 -80 -4 -32 12 -80 37 -115 96 -135 267 -26 212 137 -31 92
19 83 94 -17 89 -119 92 -140 15 -140 -38 0 -71 -17 -97 -50 -22 -27 -60 -50
-84 -50 -25 0 -74 -25 -109 -55 -36 -30 -93 -70 -128 -89 -83 -45 -83 -110 2
-190 119 -112 229 -137 326 -73 73 47 85 16 20 -52 -34 -35 -51 -71 -44 -90
16 -41 -11 -39 -69 6 -88 67 -242 150 -366 194 -121 44 -158 92 -82 106 57 11
92 44 123 117 24 58 34 64 87 53 112 -22 164 80 71 141 -27 17 -72 32 -100 32
-72 0 -64 52 9 67 61 12 88 94 40 123 -11 7 -20 21 -20 31 0 27 35 23 53 -6z
m697 -8 c-33 -18 -75 -45 -94 -61 -18 -17 -44 -24 -56 -16 -41 25 -9 57 81 81
124 33 138 32 69 -4z m207 -89 c14 -23 22 -46 17 -50 -14 -15 -115 75 -104 93
16 25 57 5 87 -43z m-1540 -158 c-12 -33 -29 -65 -39 -71 -26 -17 -22 65 6
110 35 56 57 30 33 -39z m1192 -86 c-7 -18 -30 -38 -51 -45 -21 -6 -64 -34
-97 -61 -57 -48 -58 -48 -71 -9 -17 55 3 81 63 81 28 0 74 18 102 40 56 45 72
43 54 -6z m476 -58 c25 13 60 35 79 48 29 21 48 10 129 -69 116 -115 102 -142
-29 -58 -151 97 -233 56 -223 -111 11 -177 9 -179 -106 -193 -58 -7 -125 -19
-150 -25 -33 -9 -45 -4 -45 20 0 25 21 32 100 32 187 0 232 117 110 289 -90
126 -88 144 10 89 66 -37 87 -41 125 -22z m-353 -67 c18 -27 29 -55 23 -61
-13 -12 -95 71 -95 96 0 33 40 14 72 -35z m1027 -8 c12 -21 21 -43 21 -50 0
-18 -154 -12 -209 9 -80 30 -62 62 26 48 49 -8 83 -4 92 10 20 33 47 27 70
-17z m-1569 -25 c74 -64 71 -134 -5 -86 -68 43 -107 90 -93 113 17 27 44 20
98 -27z m1050 -95 c26 -49 25 -61 -3 -61 -38 0 -97 63 -97 104 0 47 67 18 100
-43z m1020 -183 c0 -24 -82 -22 -120 1 -24 15 -20 22 20 38 50 18 100 -1 100
-39z m-1700 -13 c39 -49 40 -56 10 -62 -38 -8 -110 51 -110 90 0 45 55 30 100
-28z m866 -60 c-18 -14 -57 -25 -85 -25 -28 0 -78 -14 -111 -31 -56 -30 -61
-29 -95 12 -54 67 -47 70 145 69 149 0 175 -4 146 -25z m-429 -108 c14 -23 21
-46 14 -52 -13 -13 -131 94 -131 118 0 28 91 -24 117 -66z m1004 -133 c-46
-16 -212 78 -176 98 19 11 35 35 36 54 0 23 26 5 80 -56 43 -49 70 -93 60 -96z
m-1181 31 c99 -111 249 -125 332 -29 42 50 48 52 48 17 0 -124 -213 -161 -358
-63 -53 36 -114 60 -153 60 -121 0 -140 22 -55 61 104 49 101 50 186 -46z
m707 -119 c105 -83 524 -300 653 -338 109 -33 103 -67 -8 -51 -195 26 -628
280 -755 442 -53 67 -28 55 110 -53z m-347 -206 c47 -16 115 -30 151 -30 47 0
95 -24 172 -86 59 -48 148 -114 197 -148 121 -83 179 -146 133 -146 -83 0 -18
-58 132 -119 215 -88 315 -182 315 -297 0 -44 5 -95 12 -112 17 -43 -27 -41
-134 7 -49 21 -135 45 -193 52 -58 8 -111 22 -117 32 -22 37 60 41 173 10 189
-53 227 -47 212 32 -23 118 -267 275 -429 275 -73 0 -329 61 -354 85 -13 11
29 16 110 12 283 -15 41 244 -360 384 -71 25 -139 53 -149 62 -30 27 35 20
129 -13z m1051 -572 c6 -10 2 -18 -9 -18 -33 0 -122 45 -122 62 0 20 116 -19
131 -44z"/>
<path d="M3127 7843 c-366 -126 -633 -609 -480 -870 67 -115 213 -257 323
-315 l88 -47 50 47 c63 59 101 45 132 -47 29 -88 51 -91 67 -9 10 50 21 61 52
53 51 -14 71 41 31 85 -39 43 -20 60 63 60 62 0 68 6 89 90 26 103 68 118 100
35 30 -76 6 -323 -36 -369 -18 -20 -23 -36 -13 -36 55 0 147 155 147 247 0 34
21 55 81 81 154 68 165 210 16 212 -81 1 -85 83 -5 108 115 35 119 225 8 314
-87 70 -97 105 -49 174 45 63 66 55 73 -29 7 -85 56 -119 56 -40 0 33 14 55
40 63 69 22 44 51 -105 119 -253 116 -527 144 -728 74z m354 -141 c-30 -57
-27 -68 36 -149 81 -101 101 -258 44 -336 -22 -30 -41 -74 -41 -96 0 -47 -30
-51 -96 -14 l-45 25 71 66 c132 119 121 309 -20 381 -33 17 -63 33 -67 35 -4
2 23 40 60 84 66 79 100 82 58 4z m-372 -149 c62 -81 64 -141 9 -231 -40 -66
-40 -71 -7 -144 23 -52 29 -96 20 -142 -8 -36 -16 -95 -18 -131 -2 -52 -12
-65 -46 -65 -73 0 -100 54 -52 106 91 100 95 131 26 229 l-64 90 62 64 c71 73
77 139 21 211 -22 28 -39 57 -40 65 -1 35 42 10 89 -52z"/>
<path d="M5660 7670 c-71 -85 135 -353 273 -358 l77 -2 -1 93 c-3 199 -249
387 -349 267z"/>
<path d="M4033 7525 c4 -124 34 -155 95 -95 45 46 40 121 -12 169 -70 66 -86
51 -83 -74z"/>
<path d="M4220 7503 c0 -52 -90 -143 -141 -143 -43 0 -55 -60 -40 -191 15
-134 69 -137 135 -8 57 109 98 335 67 366 -15 15 -21 7 -21 -24z"/>
<path d="M5395 7518 c-62 -35 35 -281 137 -347 118 -78 256 13 209 138 -72
189 -224 281 -346 209z"/>
<path d="M6773 7490 c-46 -46 -27 -99 73 -209 126 -137 50 -126 -93 15 -128
125 -222 184 -292 184 -105 0 19 -184 329 -485 222 -216 175 -250 -58 -41
-113 101 -143 99 -60 -5 129 -162 144 -231 31 -151 l-58 41 -29 -42 c-26 -40
-31 -32 -74 125 -89 330 -180 478 -293 478 -84 0 -84 9 1 -159 73 -145 145
-373 125 -393 -23 -22 -52 12 -65 77 -53 266 -165 426 -261 375 -64 -35 -63
-99 3 -212 47 -81 52 -108 51 -298 -1 -246 19 -263 156 -139 78 71 79 71 102
28 19 -37 34 -42 101 -31 l78 12 0 -80 c0 -75 -2 -79 -40 -55 -22 13 -40 31
-40 40 0 8 -53 15 -118 15 -133 0 -174 -29 -154 -110 42 -172 45 -168 -51 -75
-147 141 -325 116 -247 -35 65 -125 30 -178 -46 -70 -57 82 -73 92 -117 81
-45 -11 -50 -8 -37 23 49 120 50 186 2 336 -69 215 -173 344 -206 255 -19 -50
-64 -81 -153 -106 l-77 -22 14 -123 c7 -68 17 -140 23 -159 13 -46 221 -215
266 -215 48 0 64 -22 39 -53 -15 -17 -17 -53 -6 -102 9 -41 15 -91 12 -110 -5
-45 70 -235 111 -280 90 -100 196 -11 219 186 13 107 38 129 58 49 23 -93 186
-48 226 61 27 74 29 75 157 27 61 -23 57 -55 -5 -43 -48 9 -190 -65 -190 -99
0 -8 -27 -29 -60 -46 -77 -40 -76 -72 5 -165 149 -171 211 -260 147 -210 -94
74 -115 61 -81 -50 28 -94 23 -165 -12 -165 -9 0 -28 38 -40 85 -56 211 -174
412 -208 356 -7 -10 -61 -45 -120 -77 l-109 -59 -45 107 c-50 122 -51 122
-153 70 -139 -71 -159 -110 -110 -208 24 -46 54 -113 66 -148 40 -107 112
-104 199 9 49 64 42 70 163 -150 94 -172 174 -196 300 -90 50 41 63 46 52 19
-8 -20 0 -62 16 -94 40 -78 38 -93 -9 -51 -55 50 -227 -6 -305 -99 -61 -73
-167 -130 -241 -130 -213 0 -81 -287 134 -291 74 -1 102 -15 193 -97 137 -123
235 -172 346 -172 l89 0 -9 75 -10 75 46 -58 c25 -32 73 -94 106 -138 129
-172 330 -273 330 -166 0 76 25 65 135 -59 155 -173 291 -227 375 -149 l43 41
81 -96 c183 -218 435 -318 475 -190 17 57 43 42 81 -47 56 -136 389 -234 442
-131 23 46 25 46 105 -63 89 -121 157 -176 261 -211 150 -51 168 3 32 97 -89
61 -114 100 -65 100 14 0 44 6 68 12 35 10 50 -2 78 -60 77 -164 316 -315 420
-268 40 18 59 13 119 -32 85 -66 246 -124 271 -99 24 24 -74 146 -139 170
-166 62 -339 206 -341 282 -1 97 23 95 89 -10 111 -174 263 -189 236 -23 -9
57 -6 67 20 57 17 -7 31 -27 31 -46 0 -65 86 -334 119 -371 57 -63 266 -152
359 -152 93 0 95 4 63 97 -38 109 -8 112 69 7 123 -168 304 -251 302 -139 -1
67 -2 67 79 5 129 -98 363 -157 386 -97 17 45 -54 94 -227 157 -90 33 -165 76
-202 116 -33 35 -76 74 -97 86 -28 16 -37 47 -39 130 -3 138 -21 193 -70 208
-21 7 -39 21 -39 32 0 28 -117 74 -224 88 -79 10 -107 26 -167 96 -39 46 -108
109 -153 139 -84 56 -81 62 38 83 58 10 68 3 107 -66 78 -139 341 -233 311
-112 -31 121 60 25 156 -166 79 -157 249 -242 269 -134 15 83 43 76 83 -21 23
-55 57 -130 75 -169 53 -111 53 -113 -1 -63 -47 44 -312 152 -329 134 -56 -56
208 -319 308 -307 69 9 88 0 176 -79 146 -130 282 -193 361 -165 34 12 28 21
-50 70 -50 30 -117 83 -150 118 -34 34 -90 77 -125 96 -82 43 -82 61 0 92 51
19 67 19 73 0 67 -200 596 -429 731 -316 73 59 64 67 -369 321 -613 359 -1405
947 -1628 1208 -102 119 -105 142 -8 61 38 -32 84 -50 128 -50 84 0 84 7 3 98
-36 39 -83 96 -105 126 -44 60 -210 63 -210 3 0 -47 -55 -30 -99 31 -56 79
-54 82 49 82 117 0 117 28 0 202 -95 142 -241 258 -323 258 -48 0 -65 -46 -27
-70 39 -24 84 -134 64 -154 -38 -38 -165 41 -152 95 20 78 -9 123 -128 203
-103 69 -109 77 -64 83 28 4 60 15 73 26 15 12 36 2 63 -32 51 -65 84 -65 84
-1 0 69 29 62 79 -19 103 -167 332 -288 516 -273 14 1 25 16 25 32 0 49 31 35
109 -52 82 -91 83 -109 2 -79 -106 41 -216 28 -200 -24 30 -98 106 -169 230
-215 264 -99 327 -35 137 139 l-56 51 124 0 c68 0 156 5 194 10 53 8 70 3 70
-20 0 -21 -34 -35 -110 -47 -134 -21 -133 -20 -94 -80 101 -154 493 -204 397
-51 -37 59 -24 63 126 35 120 -22 141 -21 200 11 40 22 83 31 109 23 100 -32
3 -91 -149 -91 -49 0 -89 -9 -89 -20 0 -58 267 -8 313 59 17 24 63 41 135 50
145 18 240 82 248 166 7 71 -46 99 -151 79 -80 -15 -642 145 -1585 452 -959
312 -920 300 -920 285 0 -7 19 -49 41 -94 55 -107 40 -115 -86 -48 -148 79
-180 111 -109 111 128 0 -12 199 -180 255 -140 46 -162 85 -48 85 101 0 102
20 6 123 -72 78 -81 81 -200 82 -187 2 -182 -18 84 -337 142 -169 180 -265 77
-191 -30 21 -104 106 -163 188 -109 150 -195 232 -167 160 71 -188 292 -493
547 -755 239 -245 386 -417 365 -424 -18 -6 -123 94 -536 515 -64 65 -272 359
-414 583 -94 149 -216 143 -245 -13 -14 -70 -38 -90 -62 -51 -25 40 -76 18
-149 -62 -68 -74 -86 -82 -198 -92 -147 -14 -163 -65 -73 -234 55 -103 58
-112 34 -112 -9 0 -35 40 -59 88 -24 49 -61 94 -83 101 -36 12 -39 25 -29 101
13 94 11 96 -133 208 -81 62 -32 70 60 10 71 -47 105 -56 225 -57 148 -1 203
32 111 67 -91 34 -118 90 -36 76 211 -38 240 -39 290 -6 76 50 62 75 -81 152
-72 38 -181 113 -241 167 l-110 98 -69 -37 c-92 -50 -97 -73 -28 -160 97 -122
26 -109 -118 22 -43 38 -107 73 -151 81 l-78 15 11 -85 c10 -73 7 -82 -22 -70
-179 77 -224 82 -294 37 -57 -38 -65 -14 -29 82 19 50 22 51 64 21 68 -47 127
-38 206 32 65 57 77 60 120 37 59 -32 186 -17 257 30 71 46 73 167 5 295 l-49
91 59 25 c80 33 84 46 36 107 -22 28 -36 52 -31 52 5 0 66 -14 135 -32 130
-33 306 -27 415 15 l53 20 -50 26 c-27 15 -89 38 -137 53 -63 18 -112 54 -175
127 -156 180 -285 278 -386 292 -51 8 -129 20 -174 28 -64 12 -88 8 -115 -19z
m1218 -1884 c-10 -41 -18 -45 -42 -25 -38 31 -37 72 1 86 17 7 31 28 33 47 1
23 6 19 11 -11 5 -26 4 -69 -3 -97z m-1086 -6 c63 -22 137 -40 165 -40 27 0
50 -9 50 -20 0 -11 -39 -20 -88 -20 -71 0 -89 -8 -98 -40 -8 -33 -27 -40 -101
-40 -50 0 -96 -9 -103 -20 -15 -24 -169 -26 -207 -2 -17 11 10 21 78 30 182
24 266 97 195 168 -32 32 -24 31 109 -16z m1877 -246 c65 -86 118 -167 117
-180 -1 -34 -151 138 -214 246 -29 50 -65 97 -79 106 -14 9 -36 36 -48 60 -41
79 96 -63 224 -232z m-542 -44 c0 -59 -32 -64 -101 -15 l-49 35 70 12 c39 7
72 14 75 15 3 2 5 -19 5 -47z m-1061 -132 c52 -143 165 -278 232 -278 77 0
109 -21 146 -97 19 -40 52 -99 73 -131 59 -90 3 -53 -73 48 -38 49 -93 101
-123 115 -30 14 -79 36 -109 50 -38 17 -77 70 -127 170 -39 80 -87 161 -105
182 -43 47 -42 63 4 63 28 0 49 -32 82 -122z m421 79 c0 -132 166 -297 298
-297 82 0 110 -30 50 -53 -79 -31 -328 110 -328 186 0 16 -18 63 -39 105 -37
73 -36 102 2 102 10 0 17 -19 17 -43z m-755 -462 c26 -66 205 -278 267 -316
86 -53 102 -41 72 55 -34 110 -11 106 38 -6 65 -148 112 -204 225 -268 126
-73 140 -74 128 -10 -14 72 10 62 94 -40 99 -120 222 -191 322 -185 66 4 81
-3 104 -49 51 -106 232 -222 331 -212 54 5 65 -1 71 -41 16 -117 -356 65 -400
196 -4 11 -56 34 -117 49 -148 39 -580 250 -667 327 -39 34 -132 94 -207 133
-187 99 -381 259 -323 269 34 5 39 16 30 65 -12 57 13 82 32 33z m2444 -87
c19 -28 29 -56 23 -62 -18 -19 -112 53 -112 84 0 48 52 35 89 -22z m-450 -47
c31 -56 -6 -69 -83 -28 l-66 34 50 15 c75 21 77 21 99 -21z m-931 -113 c20
-51 -4 -66 -68 -42 -68 26 -77 47 -25 60 65 17 81 14 93 -18z m1260 -120 c27
-71 6 -87 -57 -41 -21 15 -31 37 -23 50 21 33 66 28 80 -9z m-568 -61 c0 -71
155 -187 249 -187 73 0 88 -7 98 -45 33 -124 205 -235 268 -172 17 17 31 5 58
-50 64 -136 -42 -105 -296 87 -88 66 -173 120 -190 120 -17 0 -86 53 -154 117
-68 64 -141 127 -163 139 -34 20 -28 23 45 23 66 1 85 -6 85 -32z m-209 -282
c80 -86 115 -110 167 -113 65 -3 122 -52 122 -106 0 -19 -20 -15 -75 14 -41
22 -83 40 -93 40 -52 0 -193 116 -225 186 -19 42 -53 90 -76 106 -35 25 -37
32 -11 49 22 14 38 8 60 -24 17 -23 75 -92 131 -152z m1130 73 c32 -61 14 -66
-100 -28 -125 41 -130 70 -12 70 70 0 94 -9 112 -42z m-539 -463 c22 -47 71
-124 110 -173 76 -96 76 -125 0 -75 -106 69 -233 263 -197 300 44 44 41 45 87
-52z m671 -64 c56 -100 50 -105 -41 -43 -40 27 -84 53 -96 57 -13 4 -17 23
-10 43 23 59 98 30 147 -57z m-999 -144 c-20 -19 -114 73 -114 111 0 21 20 11
64 -33 35 -35 58 -70 50 -78z m1566 -157 c90 -92 99 -154 10 -70 -36 34 -85
52 -172 62 -162 19 -204 58 -62 58 57 0 104 9 104 20 0 38 32 19 120 -70z"/>
<path d="M5250 7369 c-11 -3 -54 -11 -96 -18 -98 -17 -126 -80 -94 -208 34
-136 -37 -203 -214 -203 -165 0 -163 -14 39 -215 297 -296 388 -222 263 213
-14 46 -12 47 75 34 123 -18 206 42 191 137 -23 140 -108 275 -164 260z"/>
<path d="M5813 7240 c-5 -16 -15 -55 -22 -85 -6 -30 -23 -55 -37 -55 -14 0
-44 -14 -68 -30 l-43 -30 47 -85 c26 -47 71 -164 101 -260 58 -188 100 -222
175 -140 33 37 76 192 64 232 -101 349 -190 535 -217 453z"/>
<path d="M7732 6884 c-55 -11 -32 -330 28 -394 22 -24 40 -53 40 -66 0 -33
-39 -30 -52 4 -24 63 -153 50 -234 -23 -33 -31 -31 -36 40 -111 182 -189 486
-212 486 -37 0 61 39 71 187 45 248 -43 306 16 158 160 -252 246 -555 442
-653 422z"/>
<path d="M7324 6839 c-50 -46 -51 -63 -16 -228 28 -136 57 -162 158 -143 151
28 229 145 191 284 -31 111 -247 168 -333 87z"/>
<path d="M3475 6621 c-7 -25 -28 -41 -53 -41 -29 0 -42 -13 -42 -40 0 -42 33
-49 116 -27 39 10 45 21 34 65 -18 73 -43 92 -55 43z"/>
<path d="M982 6445 c-369 -1259 -26 -2740 862 -3714 l90 -99 278 37 c153 20
285 40 294 45 8 5 -47 67 -124 138 -613 568 -999 1395 -1063 2279 -12 165 -39
430 -61 589 -21 160 -38 378 -38 485 l0 196 -83 89 c-106 116 -108 115 -155
-45z"/>
<path d="M5165 6475 c-120 -38 -84 -186 96 -395 52 -60 109 -140 127 -176 39
-76 58 -70 112 37 68 133 17 318 -129 471 -88 93 -102 97 -206 63z"/>
<path d="M4153 6198 c-25 -121 -12 -159 96 -306 192 -260 351 -317 351 -127 0
228 -409 624 -447 433z"/>
<path d="M4946 6144 c-85 -54 -69 -176 40 -298 38 -42 84 -105 102 -141 38
-74 47 -76 143 -36 63 26 69 36 69 112 0 211 -227 444 -354 363z"/>
<path d="M5571 5358 c-44 -33 -84 -64 -88 -69 -17 -16 99 -285 127 -296 45
-17 168 26 190 67 30 56 25 101 -28 232 -57 140 -89 151 -201 66z"/>
<path d="M5285 5158 c-95 -44 -101 -67 -54 -199 82 -234 269 -199 269 50 0
179 -60 220 -215 149z"/>
<path d="M1709 4531 c-64 -46 46 -221 113 -180 32 20 21 183 -14 197 -45 17
-56 15 -99 -17z"/>
<path d="M10050 4539 c-17 -27 40 -110 113 -164 54 -40 217 -72 217 -43 -1 37
-180 208 -218 208 -21 0 -52 5 -68 11 -17 7 -36 1 -44 -12z"/>
<path d="M10320 4526 c0 -163 554 -241 583 -82 12 64 6 66 -233 66 -132 0
-265 8 -295 17 -33 10 -55 10 -55 -1z"/>
<path d="M2419 4129 c-61 -74 33 -187 126 -151 71 27 72 86 2 141 -63 49 -93
52 -128 10z"/>
<path d="M1984 3951 c32 -64 456 -473 567 -548 96 -65 94 -63 -43 70 -353 342
-543 515 -524 478z"/>
<path d="M2244 3986 c-102 -20 -53 -146 57 -146 76 0 111 47 82 111 -22 48
-43 53 -139 35z"/>
<path d="M2960 3660 c-22 -42 3 -120 39 -120 16 0 61 105 61 143 0 34 -79 16
-100 -23z"/>
<path d="M7959 3588 c-20 -24 -47 -28 -111 -19 l-84 13 -97 -146 c-104 -157
-261 -352 -399 -496 l-87 -90 105 -54 c57 -29 160 -81 228 -115 l125 -61 142
165 c135 157 459 621 459 658 0 9 -23 17 -52 17 -49 0 -168 100 -168 142 0 28
-33 21 -61 -14z"/>
<path d="M3275 3515 c-30 -44 -32 -44 -91 -10 -82 47 -84 46 -84 -43 0 -82 22
-102 112 -102 35 0 48 -11 48 -40 0 -60 -67 -50 -151 24 -59 51 -76 58 -90 35
-46 -73 -7 -147 67 -128 47 12 53 6 73 -67 39 -144 128 -165 152 -35 7 39 25
71 39 71 69 0 78 59 32 201 -48 151 -61 162 -107 94z"/>
<path d="M2751 3175 c8 -47 16 -134 18 -195 3 -75 25 -157 70 -260 97 -217
156 -401 172 -534 20 -163 20 -163 153 -33 136 133 176 199 176 286 0 52 8 61
50 61 39 0 50 10 50 45 0 25 18 79 40 120 63 118 54 137 -110 244 -82 54 -150
106 -150 115 0 9 -18 16 -41 16 -47 0 -157 53 -309 151 -136 87 -137 87 -119
-16z"/>
<path d="M2660 2732 c-49 -26 -175 -62 -280 -81 -104 -19 -316 -63 -470 -100
-207 -48 -296 -61 -340 -48 -84 24 -364 21 -460 -5 -140 -38 -329 -279 -280
-357 17 -28 70 10 70 49 0 37 74 122 91 105 9 -8 -1 -51 -22 -97 -27 -60 -31
-90 -16 -115 16 -24 14 -45 -7 -76 -20 -31 -23 -62 -11 -110 22 -83 53 -87 62
-7 3 35 31 83 65 114 32 30 58 73 58 96 0 116 68 200 185 228 80 19 68 -21
-15 -48 -53 -17 -70 -34 -70 -68 0 -25 -14 -73 -30 -107 -35 -70 -22 -125 31
-125 27 0 41 -22 53 -85 25 -125 91 -134 73 -9 -7 56 -4 94 11 103 13 8 17 35
10 63 -9 37 0 64 33 99 85 90 219 41 219 -80 0 -50 10 -69 40 -77 31 -8 40
-27 40 -84 0 -87 36 -87 78 1 16 32 41 71 55 85 36 36 36 39 -33 117 -147 168
-76 219 434 315 469 89 606 125 606 158 -1 26 -74 195 -84 193 -3 0 -46 -22
-96 -47z"/>
<path d="M2485 2436 c-135 -32 -245 -67 -245 -76 0 -85 768 -543 1155 -689
l144 -54 61 43 c93 66 158 165 178 267 20 109 35 96 -191 175 -97 34 -202 75
-233 91 -54 28 -59 26 -200 -91 l-144 -120 -41 212 c-64 329 -84 339 -484 242z"/>
<path d="M4060 1891 c0 -100 24 -138 125 -197 47 -28 107 -74 133 -102 27 -29
66 -52 86 -52 43 0 187 -70 206 -100 40 -65 1119 42 1197 119 36 36 -412 385
-477 372 -227 -46 -939 -32 -1214 23 -53 10 -56 7 -56 -63z"/>
<path d="M7548 1148 c-27 -94 -28 -117 -5 -138 324 -310 520 -403 695 -331
159 66 68 187 -150 201 -150 10 -215 43 -129 66 101 26 -20 114 -156 114 -132
0 -147 12 -132 112 23 150 -78 130 -123 -24z"/>
</g>
</svg>
