<?xml version="1.0" standalone="no"?>
<!DOCTYPE svg PUBLIC "-//W3C//DTD SVG 20010904//EN"
 "http://www.w3.org/TR/2001/REC-SVG-20010904/DTD/svg10.dtd">
<svg version="1.0" xmlns="http://www.w3.org/2000/svg"
 width="600.000000pt" height="472.000000pt" viewBox="0 0 600.000000 472.000000"
 preserveAspectRatio="xMidYMid meet">
<g transform="translate(0.000000,472.000000) scale(0.100000,-0.100000)"
fill="#000000" stroke="none">
<path d="M2165 4649 c-451 -60 -834 -243 -1148 -548 -55 -53 -113 -114 -130
-135 -30 -37 -30 -40 -12 -50 10 -6 54 -35 97 -63 43 -29 81 -53 84 -53 3 0
38 34 77 76 231 247 560 429 912 504 129 28 420 38 562 20 289 -36 591 -158
828 -335 170 -126 350 -330 461 -522 46 -79 59 -94 135 -148 116 -82 239 -209
239 -246 0 -45 60 -162 75 -147 9 8 -37 196 -74 307 -96 286 -241 525 -450
744 -298 310 -661 501 -1106 583 -106 19 -444 27 -550 13z"/>
<path d="M2517 4225 c-104 -41 -154 -74 -223 -147 -83 -88 -117 -170 -134
-331 -18 -165 -21 -171 -120 -267 -48 -47 -108 -112 -133 -145 -25 -33 -59
-73 -77 -90 -29 -28 -36 -30 -104 -28 -78 2 -173 29 -243 70 -74 43 -143 113
-279 283 -72 91 -149 181 -170 201 -62 59 -171 126 -258 161 -70 27 -97 32
-198 36 -98 4 -122 2 -143 -12 -45 -30 -24 -104 44 -157 17 -13 52 -41 76 -61
25 -20 67 -49 95 -65 52 -29 67 -49 28 -37 -52 15 -86 33 -119 61 -19 16 -62
49 -96 72 -41 27 -70 55 -83 81 -19 37 -22 38 -57 33 -143 -21 -262 -154 -251
-280 l3 -38 33 52 c24 37 44 56 73 67 58 23 175 21 244 -5 90 -33 67 -44 -90
-43 l-138 1 27 -22 c16 -13 47 -28 70 -35 72 -21 138 -71 170 -131 16 -30 63
-88 106 -129 89 -87 92 -95 83 -237 -7 -112 4 -162 43 -192 31 -24 31 -41 -1
-41 -21 0 -25 -5 -25 -31 0 -39 38 -226 51 -251 12 -23 31 -23 53 1 17 19 18
19 51 -2 19 -12 33 -26 31 -32 -1 -5 -24 -15 -50 -21 -27 -7 -52 -16 -57 -21
-4 -4 3 -40 16 -78 31 -89 79 -134 92 -85 7 27 17 25 38 -6 12 -18 22 -24 36
-20 10 3 28 9 39 12 24 8 27 -12 5 -36 -26 -28 -20 -130 7 -130 6 0 20 7 30
17 16 14 18 14 18 1 0 -22 -20 -36 -59 -40 -27 -2 -35 -8 -38 -26 -2 -19 1
-21 20 -17 19 5 24 1 32 -26 13 -44 41 -60 60 -36 11 15 21 17 58 12 47 -7 62
2 62 38 0 13 13 23 44 34 43 14 45 14 62 -8 16 -21 19 -22 59 -10 49 14 60 7
60 -41 0 -20 -4 -26 -15 -22 -20 8 -45 -14 -62 -54 -13 -30 -16 -32 -48 -26
-33 6 -36 4 -51 -32 -12 -29 -13 -43 -5 -61 10 -21 17 -24 49 -21 36 3 37 2
34 -30 -4 -41 19 -52 59 -28 36 21 53 12 46 -24 -8 -35 18 -72 46 -68 16 2 23
11 25 30 3 22 -2 30 -23 38 -25 9 -25 11 -11 32 9 12 16 30 16 40 0 9 9 22 20
28 33 18 26 57 -15 81 -32 19 -55 46 -55 65 0 3 6 2 13 -4 6 -6 25 -12 42 -14
24 -2 34 -11 52 -50 24 -51 47 -63 99 -53 43 8 45 -9 3 -30 -22 -12 -29 -22
-27 -38 4 -32 40 -28 56 6 23 47 42 29 62 -58 6 -26 22 -63 35 -83 14 -20 36
-70 50 -112 28 -82 41 -108 50 -98 7 6 -9 143 -20 173 -6 14 -5 17 3 10 6 -5
20 -34 32 -64 17 -45 20 -65 14 -130 -7 -70 -6 -75 10 -62 35 29 29 -4 -18
-92 -37 -71 -47 -100 -44 -127 l3 -35 22 40 c12 22 37 55 57 74 l35 34 7 -29
c12 -49 -15 -294 -38 -339 -11 -22 -64 -85 -118 -141 -117 -120 -128 -145
-114 -261 9 -74 10 -78 34 -78 20 0 26 -6 28 -28 3 -28 34 -52 56 -44 11 4 10
18 0 69 -17 78 -17 103 -3 169 10 46 68 133 69 102 0 -6 -9 -63 -20 -127 -11
-63 -17 -122 -14 -130 3 -9 22 -18 41 -22 19 -4 37 -14 41 -23 8 -22 22 -31
51 -31 18 0 22 4 15 18 -4 9 -9 37 -12 62 -3 31 -11 52 -29 69 -23 22 -25 28
-18 75 5 28 9 73 10 100 0 29 6 51 13 54 7 2 12 0 12 -5 5 -166 5 -168 33
-215 16 -28 35 -48 45 -48 9 0 34 -3 56 -7 l38 -6 -18 22 c-11 12 -21 34 -24
49 -3 18 -12 28 -27 30 -23 3 -23 3 -38 139 -6 59 9 73 26 24 11 -32 45 -51
93 -51 29 0 34 -4 40 -31 6 -29 8 -31 39 -25 26 5 40 1 60 -14 44 -35 65 0 30
50 -10 14 -16 33 -15 42 4 20 -30 43 -78 53 -19 4 -41 16 -48 26 -7 10 -34 30
-61 45 -59 31 -84 73 -79 129 3 34 7 40 28 43 37 5 86 58 112 119 15 36 27 53
40 53 10 0 20 10 24 25 3 14 9 25 13 25 11 0 31 -47 31 -70 0 -28 11 -25 40
11 l26 30 65 -24 c77 -29 166 -82 299 -177 228 -162 500 -441 783 -801 88
-112 116 -132 191 -137 145 -11 178 91 36 112 -84 13 -91 46 -9 46 42 0 49 3
49 20 0 26 5 25 64 -5 81 -41 146 -30 146 25 0 39 -41 85 -104 117 -73 36 -80
43 -60 58 24 17 12 29 -61 60 -64 28 -76 45 -30 45 28 0 55 34 55 70 0 15 -20
54 -45 90 -53 75 -42 95 16 32 49 -54 82 -62 116 -31 l25 24 17 -25 c69 -104
118 -143 153 -121 27 17 47 13 80 -14 35 -30 47 -26 40 12 -5 28 -4 27 41 -14
63 -58 82 -61 156 -24 33 17 61 33 61 36 0 22 -27 55 -45 55 -12 0 -48 14 -79
30 -31 17 -76 33 -98 35 -23 2 -44 8 -47 13 -13 20 -53 32 -123 38 -95 8 -187
59 -200 112 -10 38 7 33 53 -14 54 -56 87 -74 134 -74 31 0 35 3 35 27 0 27 1
27 48 -20 49 -48 76 -57 112 -35 17 11 24 8 52 -19 57 -53 98 -67 98 -33 0 26
9 25 67 -5 50 -27 113 -31 120 -8 3 7 -14 21 -36 32 -64 33 -63 45 4 37 l57
-6 -6 35 -7 35 53 -31 c29 -17 70 -34 91 -37 33 -4 37 -2 37 18 0 30 -32 80
-67 107 -29 20 -315 160 -688 335 -312 146 -564 291 -720 413 -95 75 -262 242
-340 340 -111 140 -159 211 -272 403 -6 10 -15 10 -41 1 -18 -6 -35 -9 -38 -7
-2 3 3 21 11 41 24 57 20 104 -11 132 -22 21 -26 31 -21 61 8 47 13 51 35 31
26 -24 47 -21 83 11 43 38 51 104 19 145 -20 25 -28 28 -64 24 -23 -2 -50 -8
-62 -12 -18 -6 -23 1 -43 55 -28 77 -50 100 -97 100 -61 0 -74 -13 -74 -74 0
-35 5 -58 15 -66 16 -13 21 -50 7 -50 -4 0 -15 9 -25 20 -13 15 -29 20 -70 20
-51 0 -54 -1 -70 -36 -11 -21 -29 -40 -49 -49 -47 -19 -55 -7 -19 26 56 51 36
135 -59 247 -37 45 -48 52 -69 47 -30 -8 -81 12 -81 32 0 10 4 11 19 3 53 -28
96 1 110 73 5 24 13 33 31 35 34 5 70 40 70 69 0 25 21 39 44 30 12 -5 11 -13
-1 -51 -18 -53 -17 -56 75 -168 63 -76 99 -97 139 -79 22 10 24 15 18 49 -14
76 -98 189 -170 229 -19 11 -19 12 -2 30 11 13 17 36 17 67 0 70 25 56 26 -15
1 -30 2 -59 3 -66 1 -6 23 -35 49 -65 27 -29 54 -63 61 -75 34 -64 127 23 107
100 -3 12 -31 54 -62 92 -47 58 -63 70 -88 72 -17 1 -36 2 -42 2 -6 1 -9 14
-6 30 2 16 -1 39 -8 51 -10 20 -8 25 22 50 l33 28 -25 46 -25 46 30 24 c28 23
29 24 16 64 -18 52 -10 72 28 72 42 0 86 40 87 79 3 65 1 63 48 56 52 -8 60 0
61 65 0 35 3 44 15 41 67 -19 151 -5 166 27 4 9 10 42 13 72 7 61 5 62 67 -17
24 -30 24 -33 6 -33 -10 0 -27 -9 -38 -21 -29 -32 -95 -67 -140 -74 -35 -6
-42 -12 -53 -41 -10 -27 -20 -36 -51 -44 -32 -9 -46 -21 -75 -66 -19 -30 -47
-60 -61 -66 -24 -11 -26 -16 -20 -53 3 -29 0 -48 -10 -64 -13 -18 -14 -24 -2
-38 10 -13 10 -17 1 -20 -18 -6 -16 -59 3 -77 20 -21 37 -20 65 3 24 20 24 20
6 52 -16 29 -16 33 -1 50 8 9 18 36 21 59 6 43 26 61 46 41 18 -18 65 -13 87
9 11 11 23 34 27 51 5 29 7 30 49 23 37 -5 46 -3 68 19 14 15 26 37 26 51 0
24 3 25 53 23 l52 -2 0 40 c0 22 -4 50 -8 62 -8 21 -6 21 52 16 52 -5 62 -3
67 12 5 11 1 22 -9 30 -21 15 -12 25 25 25 59 0 39 -66 -30 -98 -47 -22 -52
-28 -52 -78 0 -36 6 -47 40 -77 96 -87 177 -100 205 -33 l13 31 11 -27 c12
-32 57 -58 100 -58 24 0 32 5 37 25 8 33 33 39 85 20 55 -18 73 -19 88 -1 9
11 -1 23 -46 62 -32 26 -89 79 -127 117 -84 83 -115 100 -183 101 -28 1 -55 5
-60 10 -4 4 7 20 25 35 l32 28 -57 13 c-32 7 -105 30 -163 53 -88 34 -117 40
-182 41 -71 1 -79 -1 -107 -28 -35 -33 -55 -27 -46 15 4 16 3 29 -2 29 -4 -1
-48 -16 -96 -35z m-1813 -349 c42 -18 100 -68 127 -112 30 -49 16 -55 -29 -13
-88 84 -128 97 -180 59 -24 -18 -31 -19 -60 -8 -39 15 -40 27 -6 62 31 30 92
35 148 12z m-366 -53 c2 -9 -8 -13 -32 -13 -37 0 -49 15 -18 23 26 7 45 3 50
-10z m352 -38 c-13 -16 -40 -20 -40 -7 0 14 12 22 33 22 16 0 17 -3 7 -15z
m40 -995 c0 -5 -4 -10 -9 -10 -6 0 -13 5 -16 10 -3 6 1 10 9 10 9 0 16 -4 16
-10z m60 -92 c0 -22 -37 -61 -50 -53 -6 4 -4 15 5 28 8 12 15 35 15 52 1 29 1
29 15 11 8 -11 15 -28 15 -38z m1629 -4 c31 -15 46 -15 99 1 18 6 22 3 22 -13
0 -22 -15 -38 -24 -24 -2 4 -26 6 -53 3 -45 -6 -49 -8 -61 -46 -15 -47 -9 -81
21 -114 16 -17 19 -25 9 -28 -7 -3 -33 -23 -58 -44 -44 -38 -77 -49 -89 -29
-3 6 4 10 18 10 42 0 77 36 77 80 0 20 -6 42 -13 48 -7 6 -42 12 -77 14 l-65
3 42 14 c23 8 59 29 79 47 30 28 36 39 32 64 -5 35 -2 36 41 14z m-1563 -272
c21 2 33 0 31 -6 -5 -16 -52 -19 -77 -6 -14 7 -20 20 -19 43 l1 32 14 -34 c13
-30 18 -33 50 -29z m1618 -72 c-5 -5 -10 7 -10 28 -2 37 -2 37 8 9 6 -16 6
-33 2 -37z m-21 -45 c-3 -9 -8 -14 -10 -11 -3 3 -2 9 2 15 9 16 15 13 8 -4z
m-717 -249 c20 -21 18 -28 -20 -65 -27 -26 -37 -31 -52 -23 -11 5 -32 14 -48
18 -16 5 -31 15 -34 23 -3 10 2 11 19 5 40 -13 63 -6 88 25 27 36 28 36 47 17z
m191 -121 c-4 -8 -2 -17 4 -20 18 -12 -2 -25 -37 -25 -41 0 -43 11 -6 39 32
24 46 27 39 6z m-517 -46 c0 -9 -22 -15 -77 -22 -25 -3 -33 0 -33 13 0 13 11
16 55 17 30 1 55 -3 55 -8z m350 -35 c0 -13 -4 -24 -10 -24 -5 0 -10 14 -10
31 0 17 4 28 10 24 6 -3 10 -17 10 -31z m463 -4 c8 -40 34 -39 45 2 12 46 27
45 46 -6 23 -59 39 -72 71 -58 27 12 33 4 13 -16 -18 -18 -37 -15 -72 15 l-31
26 -3 -31 c-4 -39 28 -102 68 -136 36 -29 62 -33 80 -11 14 17 30 20 30 6 0
-18 -32 -41 -56 -41 -16 0 -28 -8 -36 -25 -6 -14 -14 -25 -18 -25 -17 0 -43
44 -70 114 -15 42 -42 98 -59 124 -17 27 -31 61 -31 76 0 35 16 26 23 -14z
m526 -75 c0 -16 -3 -15 -15 8 -12 23 -21 28 -46 25 -32 -3 -38 -10 -57 -68
-10 -31 -9 -37 10 -52 30 -25 74 -23 93 4 16 23 30 21 21 -3 -7 -18 -61 -49
-85 -49 -10 0 -35 10 -55 21 l-36 22 -6 -22 c-7 -28 -17 -27 -31 4 -17 36 -15
45 8 45 54 0 82 32 77 90 -2 22 3 25 40 30 24 4 46 10 50 14 9 9 32 -40 32
-69z m-874 13 c6 -13 24 -26 43 -30 19 -5 32 -15 32 -24 0 -11 -6 -14 -22 -8
-54 16 -78 35 -78 59 0 31 12 32 25 3z m925 -158 c9 -17 8 -20 -9 -20 -22 0
-35 15 -26 30 10 16 23 12 35 -10z m-883 -122 c-3 -7 -5 -2 -5 12 0 14 2 19 5
13 2 -7 2 -19 0 -25z m560 20 c4 -7 6 -25 4 -40 -1 -16 6 -40 19 -58 48 -68
133 -13 106 69 -16 45 10 41 47 -9 20 -27 37 -54 37 -60 0 -5 -13 -10 -29 -10
-20 0 -36 -9 -49 -25 -11 -14 -30 -25 -42 -25 -12 0 -37 -12 -55 -27 -17 -16
-46 -36 -64 -45 -41 -23 -41 -55 2 -95 59 -56 114 -69 163 -37 36 24 42 8 9
-26 -17 -17 -25 -35 -22 -44 8 -21 -5 -20 -34 2 -44 34 -121 75 -183 98 -61
22 -79 45 -41 52 29 6 46 22 62 59 12 29 16 32 43 26 56 -11 82 40 35 71 -13
9 -36 16 -50 16 -35 0 -32 26 5 34 24 4 30 11 30 30 0 14 -4 28 -10 31 -5 3
-10 10 -10 16 0 13 17 11 27 -3z m348 -5 c-16 -8 -38 -22 -47 -30 -9 -8 -22
-12 -28 -8 -20 13 -4 28 41 40 62 17 69 17 34 -2z m103 -44 c8 -12 12 -23 9
-25 -7 -8 -57 37 -52 46 8 13 28 3 43 -21z m102 11 c0 -5 -2 -10 -4 -10 -3 0
-8 5 -11 10 -3 6 -1 10 4 10 6 0 11 -4 11 -10z m-872 -90 c-5 -17 -14 -33 -19
-36 -13 -8 -11 33 3 55 18 29 28 15 16 -19z m596 -43 c-3 -9 -14 -19 -25 -22
-10 -4 -32 -17 -48 -31 -29 -24 -30 -24 -36 -4 -9 27 1 40 32 40 13 0 36 9 50
20 29 22 37 21 27 -3z m238 -29 c13 7 31 17 40 24 14 10 24 5 64 -35 26 -25
45 -49 41 -53 -3 -4 -28 8 -55 25 -27 17 -56 31 -65 31 -25 0 -49 -45 -46 -87
5 -88 4 -90 -53 -97 -29 -3 -63 -9 -75 -12 -17 -5 -23 -2 -23 10 0 13 11 16
50 16 94 0 116 59 55 144 -19 27 -35 54 -35 58 0 5 18 -1 40 -13 33 -19 43
-20 62 -11z m-674 -3 c-3 -3 -9 2 -12 12 -6 14 -5 15 5 6 7 -7 10 -15 7 -18z
m498 -30 c9 -14 14 -28 11 -31 -6 -6 -47 36 -47 48 0 17 20 7 36 -17z m514 -4
c5 -11 10 -22 10 -25 0 -10 -77 -7 -104 4 -40 15 -32 31 13 24 24 -4 41 -2 45
5 11 16 24 13 36 -8z m-785 -13 c14 -12 25 -30 25 -41 0 -19 -1 -19 -27 -2
-34 21 -54 45 -47 56 8 14 22 10 49 -13z m525 -48 c13 -24 13 -30 -2 -30 -19
0 -48 32 -48 52 0 16 3 17 20 8 11 -6 24 -19 30 -30z m510 -91 c0 -12 -41 -11
-60 1 -12 7 -10 11 10 18 25 10 50 0 50 -19z m-850 -6 c19 -25 20 -28 5 -31
-19 -4 -55 25 -55 45 0 22 27 15 50 -14z m433 -30 c-9 -7 -28 -13 -42 -13 -14
0 -39 -7 -56 -16 -28 -14 -31 -14 -47 6 -10 12 -18 25 -18 29 0 3 41 6 90 6
75 0 87 -2 73 -12z m-214 -55 c7 -11 10 -23 7 -26 -7 -6 -66 47 -66 60 0 13
45 -12 59 -34z m501 -66 c-5 -2 -31 6 -57 18 -41 18 -45 23 -30 31 9 6 17 18
17 27 1 12 14 3 40 -28 22 -25 36 -46 30 -48z m-590 16 c35 -40 41 -43 90 -43
44 0 55 4 76 28 21 25 24 26 24 8 0 -31 -47 -61 -94 -61 -29 0 -54 9 -85 30
-27 18 -57 30 -77 30 -60 0 -70 11 -27 31 21 9 42 18 47 18 4 1 25 -18 46 -41z
m353 -60 c53 -41 262 -150 327 -169 54 -16 52 -33 -4 -26 -97 14 -314 141
-377 222 -27 33 -14 27 54 -27z m-173 -103 c23 -8 57 -15 75 -15 24 0 48 -12
87 -43 29 -24 73 -57 98 -74 25 -17 54 -40 64 -52 17 -19 17 -21 3 -21 -42 0
-10 -29 66 -60 107 -43 157 -91 157 -148 0 -22 3 -47 6 -56 8 -22 -13 -20 -67
3 -24 11 -68 23 -97 27 -29 3 -55 11 -58 15 -11 19 30 21 87 5 32 -9 71 -16
85 -16 24 0 26 2 20 33 -11 59 -133 137 -214 137 -36 0 -164 31 -177 42 -6 6
14 8 55 6 60 -3 65 -1 68 18 5 38 -130 133 -248 175 -36 12 -69 26 -74 31 -16
13 17 10 64 -7z m526 -286 c3 -5 1 -9 -5 -9 -17 0 -61 23 -61 31 0 10 58 -10
66 -22z"/>
<path d="M1563 3921 c-133 -45 -251 -196 -261 -332 -4 -49 0 -65 21 -102 34
-58 107 -129 162 -158 l44 -23 25 23 c31 29 51 23 66 -23 14 -44 26 -46 34 -5
5 25 10 30 25 26 26 -6 36 21 16 43 -19 21 -10 30 32 30 31 0 33 3 44 45 13
51 34 59 50 18 15 -39 3 -162 -18 -185 -9 -10 -12 -18 -6 -18 27 0 73 77 73
124 0 16 11 27 40 40 23 10 48 29 57 43 16 24 16 26 -8 44 -13 10 -31 19 -40
19 -21 0 -40 22 -31 36 4 6 16 14 28 18 26 8 44 46 44 91 0 28 -7 40 -40 66
-43 35 -48 53 -24 87 22 32 32 27 36 -15 3 -42 28 -59 28 -20 0 17 7 28 20 32
35 11 22 25 -52 60 -127 57 -264 71 -365 36z m178 -70 c-16 -28 -14 -34 18
-74 40 -51 50 -130 22 -168 -12 -16 -21 -37 -21 -49 0 -23 -15 -25 -48 -7
l-23 13 36 33 c51 46 58 71 37 128 -12 33 -27 52 -47 63 -17 8 -32 16 -34 17
-2 1 12 20 30 42 34 40 50 41 30 2z m-187 -74 c31 -41 33 -71 5 -116 -20 -33
-20 -35 -4 -72 12 -26 15 -48 10 -71 -4 -18 -7 -48 -8 -65 -2 -26 -6 -33 -23
-33 -12 0 -27 7 -34 15 -11 13 -9 19 7 38 46 50 48 66 13 115 l-31 45 30 31
c36 37 39 70 11 106 -11 14 -20 28 -20 33 0 17 21 5 44 -26z"/>
<path d="M2830 3835 c-19 -23 11 -92 59 -139 31 -30 48 -39 78 -40 l38 -1 -1
47 c-1 77 -64 148 -132 148 -16 0 -35 -7 -42 -15z"/>
<path d="M2017 3763 c1 -63 17 -78 47 -48 22 23 20 61 -6 85 -35 32 -43 25
-41 -37z"/>
<path d="M2110 3752 c0 -26 -45 -72 -70 -72 -22 0 -28 -30 -21 -95 8 -67 35
-69 68 -5 28 55 49 168 33 184 -7 7 -10 3 -10 -12z"/>
<path d="M2698 3759 c-10 -5 -18 -16 -18 -23 0 -27 62 -135 86 -151 37 -24 86
-16 102 17 15 32 6 60 -40 123 -30 39 -37 44 -73 44 -22 0 -48 -4 -57 -10z"/>
<path d="M3386 3745 c-22 -23 -13 -49 37 -104 63 -69 25 -63 -47 7 -33 33 -75
67 -93 76 -43 21 -73 21 -73 -2 0 -25 80 -123 185 -224 83 -81 96 -105 42 -76
-12 6 -44 31 -71 55 -57 51 -71 49 -30 -3 65 -80 72 -115 16 -75 l-30 21 -14
-22 c-13 -20 -15 -16 -37 63 -27 101 -53 161 -87 206 -20 26 -32 33 -60 33
-18 0 -34 -2 -34 -5 0 -3 16 -37 35 -75 36 -72 72 -186 62 -196 -11 -11 -25 6
-32 39 -14 70 -58 168 -82 184 -20 13 -28 14 -48 3 -33 -17 -32 -49 1 -106 24
-40 26 -54 26 -149 -1 -97 1 -105 19 -105 10 0 37 16 58 36 39 35 40 35 51 13
10 -18 18 -20 51 -15 l39 6 0 -40 c0 -38 -1 -39 -20 -28 -11 7 -20 16 -20 20
0 5 -26 8 -59 8 -66 0 -87 -15 -77 -55 21 -86 23 -84 -26 -37 -37 36 -50 42
-86 42 -51 0 -60 -15 -37 -60 9 -17 15 -43 13 -57 -3 -24 -5 -22 -36 22 -29
41 -36 46 -59 40 -22 -5 -24 -3 -18 12 25 60 25 93 1 168 -23 73 -66 145 -87
145 -5 0 -13 -8 -16 -17 -10 -25 -32 -41 -76 -53 l-39 -11 7 -62 c3 -34 9 -70
11 -79 7 -24 111 -108 133 -108 25 0 33 -11 20 -26 -7 -9 -8 -27 -3 -51 4 -21
7 -46 6 -55 -2 -23 35 -118 55 -140 9 -10 29 -18 44 -18 35 0 57 38 66 111 6
53 19 64 29 24 12 -46 93 -24 113 31 13 37 14 37 79 13 30 -12 28 -27 -3 -21
-24 4 -95 -33 -95 -50 0 -4 -13 -14 -30 -23 -38 -20 -38 -36 3 -82 17 -21 48
-58 67 -83 33 -43 34 -44 6 -22 -47 36 -57 30 -41 -25 14 -47 12 -83 -5 -83
-5 0 -14 19 -21 43 -15 59 -76 187 -88 187 -5 0 -12 -4 -16 -9 -3 -5 -30 -23
-60 -39 l-54 -30 -22 54 c-13 30 -27 54 -31 54 -17 0 -84 -38 -103 -59 -19
-22 -19 -22 2 -64 12 -23 27 -56 33 -74 20 -53 56 -52 99 4 25 32 21 36 82
-74 39 -71 41 -73 79 -73 27 0 48 8 71 28 25 20 31 23 26 9 -4 -10 0 -31 8
-47 20 -39 19 -47 -4 -26 -19 17 -22 17 -73 1 -34 -11 -63 -29 -80 -50 -31
-36 -84 -65 -120 -65 -31 0 -61 -32 -56 -61 5 -37 72 -83 122 -84 38 -1 51 -8
97 -49 69 -62 117 -86 173 -86 l45 0 -5 38 -5 37 23 -29 c13 -16 37 -47 53
-69 40 -53 93 -94 133 -102 30 -6 32 -5 32 19 0 14 4 26 9 26 5 0 32 -25 59
-55 49 -56 110 -95 146 -95 11 0 29 9 41 20 l22 20 40 -48 c50 -59 107 -99
165 -117 50 -15 62 -11 72 23 9 28 22 20 41 -24 11 -27 27 -40 72 -61 77 -35
133 -36 149 -4 12 23 12 22 53 -32 44 -60 78 -88 130 -105 75 -26 84 1 16 48
-44 31 -57 50 -32 50 6 0 22 3 34 6 17 5 24 -1 38 -30 10 -20 39 -56 65 -79
56 -51 110 -71 146 -55 20 9 29 7 59 -16 43 -33 123 -62 135 -50 13 13 -37 73
-69 85 -14 6 -58 31 -98 57 -68 44 -72 49 -72 85 -1 20 3 37 8 37 5 0 21 -19
36 -42 15 -24 43 -51 63 -61 34 -17 37 -18 48 -2 7 10 10 31 7 51 -5 28 -3 33
10 28 9 -3 16 -13 16 -22 0 -33 43 -167 59 -186 28 -32 133 -76 180 -76 46 0
47 2 31 48 -19 55 -4 57 34 4 40 -54 86 -88 127 -94 22 -3 25 1 25 25 -1 15 1
27 3 27 2 0 18 -11 36 -25 34 -26 135 -65 168 -65 10 0 21 7 25 16 9 23 -27
48 -113 79 -45 17 -83 38 -102 58 -16 18 -38 37 -48 43 -14 8 -19 24 -19 65
-2 69 -11 96 -36 104 -10 4 -19 11 -19 16 0 14 -59 37 -112 44 -40 5 -53 13
-83 48 -20 23 -54 54 -77 69 -42 29 -41 32 19 42 29 5 34 2 54 -33 25 -45 83
-81 129 -81 29 0 32 2 26 25 -15 61 30 13 78 -83 40 -78 125 -121 134 -67 8
42 22 38 42 -11 12 -27 28 -65 38 -84 26 -55 26 -56 -1 -31 -24 21 -156 75
-165 67 -8 -9 39 -84 76 -120 36 -34 45 -38 79 -34 34 4 43 0 87 -39 73 -66
142 -97 181 -83 17 6 14 10 -25 35 -25 15 -59 42 -75 59 -17 17 -45 39 -63 48
-40 21 -40 30 0 46 26 9 34 9 37 0 9 -27 93 -106 140 -132 59 -32 199 -48 226
-26 36 30 31 34 -185 160 -306 180 -703 474 -814 604 -51 60 -52 72 -4 31 27
-23 98 -36 98 -19 0 4 -15 23 -33 43 -17 20 -41 48 -52 63 -18 24 -25 27 -62
21 -27 -3 -43 -11 -43 -19 0 -24 -28 -15 -49 15 -12 16 -21 32 -21 35 0 3 20
6 45 6 59 0 59 14 0 101 -47 71 -120 129 -162 129 -23 0 -32 -23 -13 -35 6 -3
17 -20 26 -37 22 -42 6 -55 -40 -33 -30 14 -35 21 -30 40 10 39 -5 62 -64 102
-52 34 -55 38 -32 41 14 2 30 8 36 13 8 7 18 1 32 -16 25 -32 42 -32 42 0 0
35 15 31 40 -10 51 -83 166 -143 258 -136 6 1 12 8 12 16 0 25 16 17 55 -26
41 -45 41 -55 1 -39 -15 5 -45 10 -67 10 -37 0 -40 -2 -34 -22 15 -49 53 -85
116 -108 60 -23 113 -30 125 -17 9 8 -22 54 -57 86 l-28 26 62 0 c34 0 78 2
97 5 27 4 35 1 35 -10 0 -10 -17 -17 -55 -23 -30 -5 -57 -11 -59 -13 -8 -8 30
-53 63 -73 40 -25 128 -33 148 -13 10 10 10 16 0 33 -8 12 -11 23 -9 25 3 3
35 -1 72 -7 59 -11 70 -11 100 5 20 11 41 15 54 11 50 -15 1 -45 -75 -45 -24
0 -44 -4 -44 -10 0 -13 81 -13 116 0 15 6 34 19 41 29 8 12 31 21 67 25 72 9
120 41 124 83 3 28 -1 33 -23 39 -14 3 -37 4 -52 1 -40 -8 -322 73 -793 226
-479 156 -460 150 -460 142 0 -3 9 -24 21 -46 11 -23 18 -43 15 -47 -7 -6
-103 43 -126 64 -12 12 -11 14 13 14 35 0 34 16 -3 67 -24 32 -43 46 -87 60
-70 24 -81 43 -24 43 23 0 41 5 41 10 0 6 -17 29 -38 51 -36 39 -40 41 -100
42 -34 0 -65 -3 -69 -6 -8 -9 32 -68 111 -163 71 -85 90 -133 39 -96 -16 11
-52 54 -82 95 -55 75 -97 115 -84 79 4 -9 29 -55 56 -101 52 -92 112 -167 218
-276 119 -123 193 -209 182 -212 -9 -3 -61 47 -268 257 -32 33 -136 180 -206
292 -17 26 -39 50 -50 53 -30 10 -66 -19 -73 -59 -7 -35 -19 -46 -31 -26 -12
20 -38 9 -75 -31 -34 -37 -42 -41 -98 -46 -62 -6 -62 -6 -62 -38 0 -18 11 -53
25 -79 27 -52 29 -56 17 -56 -4 0 -18 20 -29 44 -12 24 -31 47 -42 51 -18 5
-20 12 -14 50 6 47 5 48 -67 104 -40 31 -16 35 30 5 35 -24 53 -28 112 -28 75
-1 102 15 56 33 -13 5 -30 17 -38 27 -14 16 -13 17 20 11 106 -19 120 -19 145
-3 14 9 25 22 25 29 0 6 -30 28 -66 47 -36 19 -90 57 -120 84 l-55 49 -34 -19
c-47 -25 -49 -37 -14 -80 16 -20 27 -39 25 -41 -7 -7 -45 16 -85 52 -21 19
-53 36 -75 41 l-39 7 6 -42 c5 -37 3 -42 -11 -35 -90 38 -113 41 -147 18 -22
-15 -25 -15 -25 -1 0 9 4 28 10 42 9 25 11 25 32 11 34 -24 63 -19 103 15 32
29 38 31 60 19 30 -16 93 -8 129 15 35 23 36 84 2 148 l-24 45 29 12 c40 17
42 23 18 54 -11 14 -18 26 -16 26 3 0 34 -7 68 -16 65 -17 153 -14 207 7 l27
11 -25 13 c-14 7 -45 19 -69 26 -31 9 -55 27 -87 63 -78 91 -142 139 -193 147
-25 3 -64 10 -87 14 -32 5 -44 3 -58 -10z m34 -411 c0 -8 -4 -12 -10 -9 -5 3
-10 13 -10 21 0 8 5 12 10 9 6 -3 10 -13 10 -21z m-145 -394 c10 -11 16 -20
13 -20 -3 0 -13 9 -23 20 -10 11 -16 20 -13 20 3 0 13 -9 23 -20z m720 -137
c-5 -20 -8 -23 -20 -13 -19 16 -19 36 0 44 8 3 16 13 16 23 1 12 3 10 6 -6 3
-12 2 -34 -2 -48z m-542 -3 c31 -11 68 -20 82 -20 14 0 25 -4 25 -10 0 -5 -20
-10 -44 -10 -35 0 -45 -4 -49 -20 -4 -16 -14 -20 -50 -20 -25 0 -49 -4 -52
-10 -7 -12 -85 -13 -103 -1 -9 5 4 11 39 15 91 12 133 48 97 84 -16 16 -12 15
55 -8z m938 -123 c32 -43 59 -84 59 -90 -1 -17 -76 69 -108 123 -14 25 -32 49
-39 53 -7 4 -18 18 -24 30 -21 40 48 -31 112 -116z m-264 16 c-4 -3 -7 0 -7 7
0 7 3 10 7 7 3 -4 3 -10 0 -14z m-7 -38 c0 -29 -16 -32 -50 -7 l-25 17 35 6
c19 4 36 7 38 8 1 0 2 -10 2 -24z m-530 -66 c26 -72 82 -139 115 -139 39 0 55
-11 73 -49 10 -20 27 -49 37 -65 30 -45 2 -27 -37 24 -18 24 -46 50 -61 57
-15 7 -39 19 -54 26 -20 8 -39 34 -64 84 -20 40 -43 81 -52 91 -22 24 -21 32
2 32 13 0 24 -16 41 -61z m210 39 c0 -30 45 -103 79 -127 18 -13 45 -21 70
-21 41 0 55 -15 25 -27 -40 -15 -164 55 -164 93 0 8 -9 32 -20 53 -18 36 -18
51 2 51 4 0 8 -10 8 -22z m470 -153 c0 -8 -7 -15 -15 -15 -8 0 -15 7 -15 15 0
8 7 15 15 15 8 0 15 -7 15 -15z m-847 -77 c23 -61 156 -193 174 -174 4 3 1 23
-5 43 -17 55 -5 53 19 -3 33 -74 56 -102 112 -134 63 -36 71 -37 65 -5 -7 36
5 31 46 -20 50 -60 111 -96 161 -92 34 2 41 -2 52 -25 26 -53 117 -111 166
-106 27 3 33 -1 35 -20 3 -22 1 -23 -30 -17 -74 16 -155 71 -170 115 -1 5 -28
16 -58 24 -74 19 -290 125 -334 163 -19 17 -65 47 -103 67 -38 20 -94 58 -126
84 -47 39 -53 48 -36 50 18 3 20 9 15 33 -5 28 7 41 17 17z m1222 -44 c9 -14
14 -28 11 -31 -9 -9 -56 26 -56 42 0 24 26 17 45 -11z m-225 -23 c15 -29 -4
-35 -42 -15 l-33 18 25 7 c38 11 39 10 50 -10z m-270 -6 c0 -8 -9 -15 -20 -15
-22 0 -27 15 -7 23 21 9 27 7 27 -8z m-196 -51 c10 -26 -2 -33 -34 -21 -34 13
-38 23 -12 30 32 9 40 7 46 -9z m630 -60 c14 -36 3 -44 -29 -21 -10 8 -15 19
-11 25 10 17 33 15 40 -4z m-284 -31 c0 -9 18 -33 40 -55 35 -32 48 -38 84
-38 37 0 45 -4 50 -22 3 -13 21 -40 40 -60 36 -39 71 -49 93 -27 9 9 16 3 29
-24 10 -20 15 -39 12 -42 -11 -12 -81 25 -159 85 -44 33 -87 60 -95 60 -9 0
-43 26 -77 59 -34 32 -71 63 -82 69 -17 10 -14 11 23 12 33 0 42 -4 42 -17z
m-104 -140 c40 -44 57 -55 83 -57 33 -1 61 -26 61 -53 0 -10 -10 -8 -37 7 -21
11 -42 20 -47 20 -26 0 -97 58 -112 93 -10 21 -27 45 -38 53 -18 12 -19 16 -6
24 11 7 19 4 30 -11 8 -12 38 -46 66 -76z m564 36 c17 -30 7 -33 -49 -14 -63
21 -65 35 -6 35 35 0 47 -4 55 -21z m-269 -231 c11 -24 36 -63 55 -87 19 -24
32 -46 30 -49 -11 -10 -56 29 -100 86 -42 55 -44 60 -28 75 9 10 18 17 20 17
2 0 12 -19 23 -42z m336 -33 c12 -22 20 -41 19 -43 -2 -2 -20 8 -40 22 -20 13
-42 26 -48 28 -7 3 -9 12 -5 22 12 30 49 15 74 -29z m-500 -71 c-10 -10 -57
36 -57 55 0 11 10 6 32 -16 18 -18 29 -36 25 -39z m783 -79 c45 -46 50 -77 5
-35 -18 17 -43 26 -86 31 -81 9 -102 29 -31 29 29 0 52 5 52 10 0 19 16 10 60
-35z"/>
<path d="M2625 3684 c-5 -1 -27 -5 -48 -9 -49 -8 -63 -40 -47 -104 10 -41 9
-45 -16 -72 -25 -26 -34 -29 -91 -29 -44 0 -63 -4 -63 -13 0 -7 37 -49 83 -95
89 -88 118 -100 152 -62 19 20 16 40 -21 169 -7 23 -6 24 38 17 37 -6 49 -3
72 15 33 26 32 55 -4 131 -21 45 -34 58 -55 52z"/>
<path d="M2907 3620 c-3 -8 -8 -27 -11 -42 -4 -16 -12 -28 -19 -28 -7 0 -22
-7 -34 -15 l-22 -15 24 -43 c13 -23 35 -81 50 -129 24 -76 30 -88 50 -88 12 0
29 8 38 18 16 18 38 96 32 116 -35 123 -62 193 -80 214 -18 21 -25 24 -28 12z"/>
<path d="M3866 3442 c-17 -4 -18 -11 -12 -90 5 -66 11 -91 26 -107 11 -12 20
-27 20 -33 0 -17 -19 -15 -26 2 -12 31 -76 25 -117 -11 -17 -16 -16 -19 20
-56 91 -94 243 -106 243 -18 0 30 20 35 93 22 67 -12 127 -1 127 22 -1 19 -87
98 -200 184 -102 77 -134 93 -174 85z"/>
<path d="M3662 3420 c-12 -12 -22 -28 -21 -38 1 -45 27 -137 41 -145 22 -15
83 0 117 28 33 29 43 63 29 111 -11 40 -26 49 -94 58 -42 5 -54 3 -72 -14z"/>
<path d="M1737 3311 c-3 -13 -13 -21 -26 -21 -14 0 -21 -6 -21 -20 0 -21 16
-25 58 -14 19 6 22 11 17 33 -9 36 -21 46 -28 22z"/>
<path d="M491 3223 c-56 -192 -75 -363 -68 -607 8 -271 54 -481 158 -721 78
-179 214 -391 341 -530 l45 -49 139 18 c76 10 143 21 147 23 4 3 -24 34 -62
69 -38 35 -103 106 -144 157 -236 291 -360 607 -388 983 -6 82 -19 214 -30
294 -10 80 -19 189 -19 243 l0 97 -41 45 c-23 25 -45 45 -50 45 -4 0 -17 -30
-28 -67z"/>
<path d="M2583 3238 c-29 -10 -33 -15 -33 -45 0 -44 21 -84 80 -153 26 -30 55
-70 64 -88 9 -18 21 -30 27 -27 15 10 49 82 49 104 0 43 -44 134 -84 177 -45
46 -51 48 -103 32z"/>
<path d="M2076 3099 c-12 -60 -6 -80 49 -153 61 -83 98 -116 129 -116 79 0 54
102 -60 241 -41 49 -54 59 -80 59 -27 0 -32 -4 -38 -31z"/>
<path d="M2473 3072 c-6 -4 -16 -20 -22 -35 -13 -34 -2 -64 42 -114 19 -21 42
-53 51 -70 19 -37 23 -39 71 -19 32 14 35 19 35 56 0 52 -21 96 -69 149 -38
41 -77 53 -108 33z"/>
<path d="M2785 2679 c-21 -16 -41 -32 -44 -34 -8 -9 50 -143 64 -149 22 -8 84
13 95 34 15 28 12 51 -14 116 -29 70 -45 75 -101 33z"/>
<path d="M2643 2579 c-48 -22 -51 -33 -28 -100 29 -81 66 -99 110 -54 33 32
36 124 5 155 -24 24 -33 24 -87 -1z"/>
<path d="M854 2266 c-19 -14 -19 -15 0 -50 33 -63 66 -59 66 9 0 30 -5 45 -16
49 -22 9 -28 8 -50 -8z"/>
<path d="M5025 2270 c-9 -14 20 -55 56 -83 27 -20 109 -36 109 -21 -1 18 -90
104 -109 104 -11 0 -26 3 -34 6 -8 3 -18 0 -22 -6z"/>
<path d="M5160 2263 c0 -14 40 -48 78 -67 58 -30 124 -32 171 -5 23 12 42 26
43 31 5 32 2 33 -117 33 -66 0 -132 4 -147 9 -17 5 -28 4 -28 -1z"/>
<path d="M1210 2064 c-16 -18 -4 -61 20 -76 22 -14 70 7 70 31 0 20 -43 61
-65 61 -7 0 -18 -7 -25 -16z"/>
<path d="M992 1975 c16 -31 228 -236 283 -274 48 -32 48 -31 -21 35 -176 171
-272 258 -262 239z"/>
<path d="M1122 1993 c-31 -6 -38 -29 -17 -53 39 -43 109 -14 87 35 -11 24 -22
27 -70 18z"/>
<path d="M1480 1830 c-11 -21 2 -60 19 -60 8 0 31 53 31 71 0 18 -40 8 -50
-11z"/>
<path d="M3979 1794 c-10 -12 -23 -14 -55 -9 l-42 6 -48 -73 c-52 -79 -131
-176 -200 -248 l-43 -45 52 -27 c28 -14 80 -40 114 -57 l62 -31 71 82 c68 79
230 311 230 329 0 5 -12 9 -26 9 -25 0 -84 50 -84 71 0 14 -16 11 -31 -7z"/>
<path d="M1637 1758 c-14 -23 -15 -23 -45 -5 -41 23 -42 23 -42 -22 0 -41 11
-51 56 -51 17 0 24 -6 24 -20 0 -30 -34 -25 -75 12 -30 26 -38 29 -46 17 -22
-36 -3 -73 34 -64 23 6 27 3 36 -33 20 -72 64 -82 77 -18 3 20 12 36 19 36 7
0 18 7 26 16 10 13 9 27 -10 85 -12 38 -26 69 -30 69 -5 0 -15 -10 -24 -22z"/>
<path d="M1376 1588 c4 -24 8 -68 9 -98 1 -38 12 -79 35 -130 48 -109 77 -201
85 -267 4 -32 10 -62 12 -66 7 -11 120 99 139 135 8 15 14 41 14 58 0 25 4 30
25 30 19 0 25 5 25 23 0 12 9 39 20 60 31 58 27 68 -55 122 -41 27 -75 52 -75
57 0 4 -9 8 -20 8 -24 0 -79 27 -155 76 -30 18 -57 34 -60 34 -4 0 -3 -19 1
-42z"/>
<path d="M1720 1575 c0 -8 7 -15 15 -15 8 0 15 7 15 15 0 8 -7 15 -15 15 -8 0
-15 -7 -15 -15z"/>
<path d="M1753 1508 c-7 -8 -8 -19 -3 -28 8 -12 10 -12 15 2 10 26 2 43 -12
26z"/>
<path d="M1330 1366 c-25 -13 -88 -31 -140 -40 -52 -10 -158 -32 -235 -50
-103 -24 -148 -31 -170 -25 -42 12 -182 11 -230 -2 -51 -14 -110 -70 -131
-125 -18 -47 -12 -73 12 -53 8 6 14 17 14 24 0 19 37 61 46 53 4 -4 -1 -26
-11 -49 -14 -30 -16 -45 -8 -57 7 -12 6 -23 -4 -39 -10 -15 -12 -30 -5 -55 10
-41 26 -43 30 -3 2 17 16 41 33 57 16 15 29 36 29 48 0 32 26 87 47 98 30 15
73 23 73 13 0 -5 -16 -15 -35 -21 -26 -9 -35 -17 -35 -34 0 -13 -7 -37 -15
-53 -18 -35 -11 -63 15 -63 14 0 21 -11 27 -42 6 -28 15 -44 26 -46 14 -3 16
3 11 41 -4 28 -2 47 5 51 6 4 8 18 5 32 -5 18 0 32 17 50 42 45 109 20 109
-40 0 -25 5 -35 20 -39 15 -4 20 -14 20 -42 0 -44 18 -43 39 1 8 16 20 35 28
42 18 18 17 19 -17 59 -16 18 -30 44 -30 58 0 45 37 60 247 99 234 44 303 62
303 79 0 13 -37 97 -42 97 -2 -1 -23 -11 -48 -24z m-720 -153 c-8 -2 -28 -9
-45 -14 -28 -8 -29 -8 -11 6 11 8 31 15 45 14 15 0 19 -3 11 -6z"/>
<path d="M1243 1218 c-68 -16 -123 -33 -123 -38 0 -12 96 -85 200 -153 98 -63
272 -152 377 -191 l73 -28 30 22 c46 33 79 82 89 134 5 25 5 48 1 51 -4 3 -48
19 -96 36 -49 17 -102 38 -117 46 -27 14 -30 12 -100 -46 l-72 -60 -21 106
c-17 89 -24 109 -48 129 -33 29 -41 29 -193 -8z"/>
<path d="M2030 946 c0 -50 12 -69 62 -99 24 -14 54 -37 67 -51 14 -14 33 -26
43 -26 22 0 94 -35 103 -50 8 -13 155 -13 286 0 116 12 300 47 312 59 5 5 -40
50 -100 101 -97 82 -111 91 -138 86 -16 -4 -113 -9 -215 -12 -169 -6 -281 1
-392 23 -27 5 -28 4 -28 -31z"/>
<path d="M3774 574 c-13 -47 -14 -58 -3 -69 8 -7 54 -47 102 -88 86 -73 91
-76 153 -82 103 -12 157 25 114 78 -15 18 -31 23 -96 27 -75 5 -108 21 -64 33
50 13 -10 57 -79 57 -66 0 -73 6 -65 56 6 42 5 44 -20 44 -22 0 -27 -7 -42
-56z"/>
</g>
</svg>
